<?xml version="1.0"?>
<svg xmlns="http://www.w3.org/2000/svg" height="512px" viewBox="-129 -20 638 638.66704" width="512px" class=""><g><path d="m372.441406 402.625c0-104.40625-173.816406-386.269531-181.214844-398.207031-1.941406-2.769531-5.105468-4.417969-8.488281-4.417969-3.378906 0-6.542969 1.648438-8.484375 4.417969-7.398437 11.9375-181.222656 293.800781-181.222656 398.207031 0 108.140625 85.101562 196.125 189.707031 196.125s189.703125-87.984375 189.703125-196.125zm-189.703125 176.15625c-93.589843 0-169.738281-79.015625-169.738281-176.15625 0-86.183594 134.285156-314.871094 169.738281-373.738281 35.457031 58.910156 169.734375 287.554687 169.734375 373.738281 0 97.140625-76.140625 176.15625-169.734375 176.15625zm0 0" data-original="#000000" class="active-path" data-old_color="#FDFDFD" fill="#FFFFFF"/><path d="m238.460938 341.023438c-2.15625-1.558594-4.84375-2.1875-7.46875-1.75-2.621094.433593-4.96875 1.894531-6.507813 4.0625l-99.84375 139.785156c-3.203125 4.488281-2.160156 10.722656 2.324219 13.925781 4.488281 3.203125 10.726562 2.167969 13.929687-2.324219l99.84375-139.78125c3.207031-4.476562 2.1875-10.703125-2.277343-13.917968zm0 0" data-original="#000000" class="active-path" data-old_color="#FDFDFD" fill="#FFFFFF"/><path d="m162.769531 379.09375c0-22.398438-13.160156-39.9375-29.953125-39.9375-16.792968 0-29.953125 17.539062-29.953125 39.9375 0 22.394531 13.160157 39.9375 29.953125 39.9375 16.792969 0 29.953125-17.542969 29.953125-39.9375zm-39.9375 0c0-12.195312 5.914063-19.96875 9.984375-19.96875 4.074219 0 9.984375 7.773438 9.984375 19.96875 0 12.191406-5.910156 19.96875-9.984375 19.96875-4.070312 0-9.984375-7.777344-9.984375-19.96875zm0 0" data-original="#000000" class="active-path" data-old_color="#FDFDFD" fill="#FFFFFF"/><path d="m232.660156 419.03125c-16.789062 0-29.953125 17.539062-29.953125 39.9375 0 22.394531 13.164063 39.9375 29.953125 39.9375 16.792969 0 29.953125-17.542969 29.953125-39.9375 0-22.398438-13.160156-39.9375-29.953125-39.9375zm0 59.90625c-4.070312 0-9.984375-7.777344-9.984375-19.96875 0-12.195312 5.914063-19.96875 9.984375-19.96875 4.074219 0 9.984375 7.773438 9.984375 19.96875 0 12.191406-5.910156 19.96875-9.984375 19.96875zm0 0" data-original="#000000" class="active-path" data-old_color="#FDFDFD" fill="#FFFFFF"/></g> </svg>
