<?xml version="1.0"?>
<svg xmlns="http://www.w3.org/2000/svg" height="512px" viewBox="0 0 409 409.6" width="512px" class=""><g><path d="m81.949219 244.375h257.128906c.5625 0 1.101563-.101562 1.609375-.28125 38.21875-2.730469 67.960938-34.527344 67.960938-72.964844 0-39.234375-31.003907-71.359375-69.796876-73.164062 1.109376-5.40625 1.671876-10.871094 1.671876-16.320313 0-45.019531-36.625-81.644531-81.644532-81.644531-32.015625 0-61.0625 18.964844-74.226562 47.816406-10.21875-6.335937-21.828125-9.65625-33.949219-9.65625-27.550781 0-52.074219 17.609375-61.125 43.339844-2.710937-.285156-5.199219-.421875-7.628906-.421875-45.023438 0-81.648438 36.625-81.648438 81.648437 0 45.019532 36.625 81.648438 81.648438 81.648438zm0-153.054688c3.160156 0 6.492187.273438 10.488281.859376 2.578125.414062 4.992188-1.210938 5.679688-3.703126 6.507812-23.597656 28.132812-40.078124 52.585937-40.078124 12.054687 0 23.523437 3.910156 33.164063 11.304687 1.289062.992187 2.984374 1.300781 4.554687.851563 1.566406-.460938 2.820313-1.640626 3.375-3.175782 10.207031-28.195312 37.164063-47.140625 67.082031-47.140625 39.375 0 71.40625 32.03125 71.40625 71.40625 0 6.714844-.980468 13.46875-2.914062 20.074219-.464844 1.585938-.136719 3.296875.882812 4.597656 1.015625 1.296875 2.601563 2.089844 4.25 1.957032l1.277344-.074219c.535156-.035157 1.078125-.074219 1.625-.074219 34.738281 0 63.003906 28.265625 63.003906 63.003906 0 33.429688-26.171875 61.027344-59.585937 62.820313-.367188.019531-.722657.085937-1.070313.1875h-255.804687c-39.375 0-71.410157-32.035157-71.410157-71.410157s32.035157-71.40625 71.410157-71.40625zm0 0" data-original="#000000" class="active-path" data-old_color="#000000" fill="#FFFFFF"/><path d="m122.699219 277.078125c-2.320313-1.617187-5.507813-1.054687-7.132813 1.261719l-43.339844 61.890625c-1.617187 2.316406-1.054687 5.503906 1.257813 7.128906.894531.625 1.917969.925781 2.933594.925781 1.613281 0 3.203125-.761718 4.199219-2.183594l43.335937-61.890624c1.621094-2.316407 1.058594-5.507813-1.253906-7.132813zm0 0" data-original="#000000" class="active-path" data-old_color="#000000" fill="#FFFFFF"/><path d="m172.328125 277.078125c-2.316406-1.617187-5.507813-1.058594-7.128906 1.261719l-53.152344 75.90625c-1.621094 2.3125-1.058594 5.503906 1.257813 7.128906.894531.625 1.921874.925781 2.933593.925781 1.613281 0 3.203125-.761719 4.199219-2.1875l53.148438-75.902343c1.621093-2.316407 1.058593-5.507813-1.257813-7.132813zm0 0" data-original="#000000" class="active-path" data-old_color="#000000" fill="#FFFFFF"/><path d="m175.679688 348.285156c1.617187 0 3.203124-.761718 4.199218-2.183594l43.339844-61.890624c1.617188-2.316407 1.054688-5.507813-1.257812-7.132813-2.324219-1.617187-5.511719-1.058594-7.132813 1.261719l-43.339844 61.890625c-1.617187 2.316406-1.054687 5.503906 1.257813 7.128906.894531.625 1.921875.925781 2.933594.925781zm0 0" data-original="#000000" class="active-path" data-old_color="#000000" fill="#FFFFFF"/><path d="m271.589844 277.078125c-2.316406-1.617187-5.507813-1.054687-7.132813 1.261719l-24.53125 35.035156c-1.617187 2.316406-1.054687 5.503906 1.257813 7.128906.894531.625 1.921875.925782 2.933594.925782 1.617187 0 3.203124-.757813 4.199218-2.183594l24.53125-35.035156c1.621094-2.316407 1.058594-5.507813-1.257812-7.132813zm0 0" data-original="#000000" class="active-path" data-old_color="#000000" fill="#FFFFFF"/><path d="m256.136719 375.144531c1.613281 0 3.199219-.757812 4.199219-2.183593l62.144531-88.75c1.621093-2.316407 1.058593-5.507813-1.257813-7.132813-2.316406-1.617187-5.511718-1.058594-7.132812 1.261719l-62.144532 88.75c-1.621093 2.316406-1.058593 5.503906 1.257813 7.128906.894531.625 1.917969.925781 2.933594.925781zm0 0" data-original="#000000" class="active-path" data-old_color="#000000" fill="#FFFFFF"/><path d="m97.738281 374.679688-15.539062 22.191406c-1.621094 2.3125-1.058594 5.503906 1.257812 7.128906.894531.625 1.917969.925781 2.933594.925781 1.613281 0 3.203125-.761719 4.199219-2.1875l15.539062-22.1875c1.617188-2.316406 1.054688-5.503906-1.257812-7.128906-2.320313-1.617187-5.511719-1.0625-7.132813 1.257813zm0 0" data-original="#000000" class="active-path" data-old_color="#000000" fill="#FFFFFF"/><path d="m156.359375 361.839844-27.800781 39.707031c-1.617188 2.3125-1.054688 5.503906 1.257812 7.128906.894532.625 1.921875.925781 2.933594.925781 1.613281 0 3.203125-.761718 4.199219-2.1875l27.800781-39.703124c1.621094-2.316407 1.058594-5.507813-1.257812-7.132813-2.316407-1.613281-5.507813-1.054687-7.132813 1.261719zm0 0" data-original="#000000" class="active-path" data-old_color="#000000" fill="#FFFFFF"/><path d="m201.597656 382.148438c1.613282 0 3.203125-.757813 4.199219-2.183594l27.804687-39.699219c1.617188-2.316406 1.054688-5.503906-1.257812-7.128906-2.320312-1.621094-5.511719-1.058594-7.132812 1.257812l-27.804688 39.699219c-1.617188 2.316406-1.054688 5.507812 1.257812 7.132812.894532.625 1.917969.921876 2.933594.921876zm0 0" data-original="#000000" class="active-path" data-old_color="#000000" fill="#FFFFFF"/></g> </svg>
