<?xml version="1.0" encoding="utf-8"?>
<!-- Generator: Adobe Illustrator 15.1.0, SVG Export Plug-In . SVG Version: 6.00 Build 0)  -->
<!DOCTYPE svg PUBLIC "-//W3C//DTD SVG 1.1//EN" "http://www.w3.org/Graphics/SVG/1.1/DTD/svg11.dtd">
<svg version="1.1" id="Calque_1" xmlns="http://www.w3.org/2000/svg" xmlns:xlink="http://www.w3.org/1999/xlink" x="0px" y="0px"
	 width="354.823px" height="171.606px" viewBox="0 0 354.823 171.606" enable-background="new 0 0 354.823 171.606"
	 xml:space="preserve">
<path id="path5127" fill="#164B9C" d="M172.297,86.213c0-45.733-40.06-82.815-85.925-82.815C38.772,3.397,0,40.479,0,86.213
	c0,45.108,38.772,81.996,86.372,81.996C133.968,168.209,172.297,131.734,172.297,86.213 M160.457,86.213
	c0,38.732-33.389,70.658-74.085,70.658c-40.922,0-74.525-31.726-74.525-70.658c0-39.34,33.604-71.691,74.525-71.691
	C127.068,14.522,160.457,47.073,160.457,86.213z M147.963,73.026c0-11.12-8.612-16.276-17.021-16.276h-16.146
	c-3.012,0-4.743,2.274-4.743,4.744v48.408c0,2.893,3.024,4.337,5.822,4.337c3.222,0,5.81-1.444,5.81-4.337V91.157h4.952
	l9.702,20.818c0.851,1.639,2.36,2.263,4.09,2.263c3.449,0,8.397-3.089,6.462-6.806l-9.264-18.538
	C143.221,86.213,147.963,81.475,147.963,73.026z M104.244,108.882c0-2.48-1.724-5.151-4.737-5.151H83.133V89.508H96.71
	c3.012,0,4.726-2.471,4.726-4.733c0-2.47-1.714-4.743-4.726-4.743H83.133V67.05h15.086c3.012,0,4.737-2.881,4.737-5.144
	c0-2.469-1.725-5.156-4.737-5.156H76.246c-3.013,0-4.732,2.274-4.732,4.744v48.208c0,2.888,3.013,4.324,5.816,4.324h22.177
	C102.52,114.025,104.244,111.149,104.244,108.882z M64.609,73.026c0-11.12-8.612-16.276-17.008-16.276H31.454
	c-3.018,0-4.737,2.274-4.737,4.744v48.408c0,2.893,3.012,4.337,5.81,4.337c3.239,0,5.81-1.444,5.81-4.337V91.157H43.3l9.691,20.818
	c0.862,1.639,2.371,2.263,4.084,2.263c3.45,0,8.403-3.089,6.462-6.806l-9.253-18.538C59.883,86.213,64.609,81.475,64.609,73.026z
	 M135.908,74.269c0,7.006-6.678,8.65-10.769,8.65h-3.455V66.23h4.096C131.17,66.23,135.908,68.5,135.908,74.269z M52.559,74.269
	c0,7.006-6.684,8.65-10.768,8.65h-3.455V66.23h4.096C47.822,66.23,52.559,68.5,52.559,74.269z"/>
<g id="g7173" transform="matrix(0.5782236,0,0,0.5782236,385.79707,316.23692)">
	<path id="path7161" fill="#4F90CD" d="M-364.044-398.543c0-81.973,69.489-148.367,155.253-148.367
		c85.735,0,155.223,66.394,155.223,148.367c0,81.965-69.488,148.415-155.234,148.415
		C-294.555-250.129-364.044-316.579-364.044-398.543"/>
	<path id="path7163" fill="#FFFFFF" d="M-342.183-398.543c0-70.486,59.723-127.597,133.393-127.597
		c73.666,0,133.371,57.121,133.371,127.597c0,70.487-59.713,127.672-133.371,127.672
		C-282.447-270.872-342.183-328.056-342.183-398.543"/>
	<path id="path7165" fill="#4F90CD" d="M-145.133-372.284c0-20.103-12.773-31.751-28.571-33.806v-0.384
		c11.618-2.027,23.685-13.093,23.685-27.763c0-30.766-29.505-35.993-53.672-35.993h-55.524v141.982h53.192
		C-177.884-328.247-145.133-336.504-145.133-372.284 M-181.152-430.014c0,16.313-17.433,16.087-28.571,16.087h-16.504v-32.568
		h16.023C-199.518-446.495-181.152-446.908-181.152-430.014z M-178.129-373.109c0,18.519-13.481,21.336-28.808,21.336h-19.28
		v-39.618h17.426C-197.87-391.392-178.129-390.782-178.129-373.109z"/>
</g>
</svg>
