<?xml version="1.0" encoding="iso-8859-1"?>
<!-- Generator: Adobe Illustrator 18.0.0, SVG Export Plug-In . SVG Version: 6.00 Build 0)  -->
<!DOCTYPE svg PUBLIC "-//W3C//DTD SVG 1.1//EN" "http://www.w3.org/Graphics/SVG/1.1/DTD/svg11.dtd">
<svg xmlns="http://www.w3.org/2000/svg" xmlns:xlink="http://www.w3.org/1999/xlink" version="1.1" id="Capa_1" x="0px" y="0px" viewBox="0 0 60 60" style="enable-background:new 0 0 60 60;" xml:space="preserve" width="512px" height="512px">
<path d="M53,41V29H31V18.931c3.94-0.495,7-3.859,7-7.931c0-4.411-3.589-8-8-8s-8,3.589-8,8c0,4.072,3.06,7.436,7,7.931V29H7v12H0v16  h16V41H9V31h20v10h-7v16h16V41h-7V31h20v10h-7v16h16V41H53z M24,11c0-3.309,2.691-6,6-6s6,2.691,6,6s-2.691,6-6,6S24,14.309,24,11z   M14,55H2V43h12V55z M36,55H24V43h12V55z M58,55H46V43h12V55z" fill="#FFFFFF"/>
<g>
</g>
<g>
</g>
<g>
</g>
<g>
</g>
<g>
</g>
<g>
</g>
<g>
</g>
<g>
</g>
<g>
</g>
<g>
</g>
<g>
</g>
<g>
</g>
<g>
</g>
<g>
</g>
<g>
</g>
</svg>
